<?xml version="1.0" encoding="UTF-8"?>
<svg width="600" height="400" viewBox="0 0 600 400" fill="none" xmlns="http://www.w3.org/2000/svg">
  <g opacity="0.8">
    <circle cx="50" cy="50" r="10" fill="white" opacity="0.1"/>
    <circle cx="150" cy="100" r="15" fill="white" opacity="0.1"/>
    <circle cx="250" cy="50" r="8" fill="white" opacity="0.1"/>
    <circle cx="350" cy="150" r="12" fill="white" opacity="0.1"/>
    <circle cx="450" cy="70" r="9" fill="white" opacity="0.1"/>
    <circle cx="100" cy="200" r="14" fill="white" opacity="0.1"/>
    <circle cx="200" cy="250" r="10" fill="white" opacity="0.1"/>
    <circle cx="300" cy="300" r="15" fill="white" opacity="0.1"/>
    <circle cx="400" cy="220" r="8" fill="white" opacity="0.1"/>
    <circle cx="500" cy="180" r="12" fill="white" opacity="0.1"/>
    <path d="M20,20 L40,40" stroke="white" stroke-width="1" opacity="0.1"/>
    <path d="M120,80 L140,100" stroke="white" stroke-width="1" opacity="0.1"/>
    <path d="M220,30 L240,50" stroke="white" stroke-width="1" opacity="0.1"/>
    <path d="M320,130 L340,150" stroke="white" stroke-width="1" opacity="0.1"/>
    <path d="M420,50 L440,70" stroke="white" stroke-width="1" opacity="0.1"/>
    <path d="M70,180 L90,200" stroke="white" stroke-width="1" opacity="0.1"/>
    <path d="M170,230 L190,250" stroke="white" stroke-width="1" opacity="0.1"/>
    <path d="M270,280 L290,300" stroke="white" stroke-width="1" opacity="0.1"/>
    <path d="M370,200 L390,220" stroke="white" stroke-width="1" opacity="0.1"/>
    <path d="M470,160 L490,180" stroke="white" stroke-width="1" opacity="0.1"/>
    <rect x="30" y="60" width="20" height="20" fill="white" opacity="0.1"/>
    <rect x="130" y="110" width="15" height="15" fill="white" opacity="0.1"/>
    <rect x="230" y="60" width="18" height="18" fill="white" opacity="0.1"/>
    <rect x="330" y="160" width="22" height="22" fill="white" opacity="0.1"/>
    <rect x="430" y="80" width="19" height="19" fill="white" opacity="0.1"/>
    <rect x="80" y="210" width="24" height="24" fill="white" opacity="0.1"/>
    <rect x="180" y="260" width="20" height="20" fill="white" opacity="0.1"/>
    <rect x="280" y="310" width="15" height="15" fill="white" opacity="0.1"/>
    <rect x="380" y="230" width="18" height="18" fill="white" opacity="0.1"/>
    <rect x="480" y="190" width="22" height="22" fill="white" opacity="0.1"/>
  </g>
</svg> 